Coordinates
version=1
nRows=26
nColumns=22
inDegrees=yes

Units are S.I. units (second, meters, Newtons, ...)
If the header above contains a line with 'inDegrees', this indicates whether rotational values are in degrees (yes) or radians (no).

endheader
time	pelvis_tilt	pelvis_list	pelvis_rotation	pelvis_tx	pelvis_ty	pelvis_tz	hip_flexion_r	hip_adduction_r	hip_rotation_r	knee_angle_r	ankle_angle_r	subtalar_angle_r	hip_flexion_l	hip_adduction_l	hip_rotation_l	knee_angle_l	ankle_angle_l	subtalar_angle_l	lumbar_extension	lumbar_bending	lumbar_rotation
      0.01000000	      3.32009553	      4.23005478	   -165.44106649	      0.20800082	      0.95296244	      1.09760523	      7.52476541	      3.77889399	     -0.47811122	    -13.70268749	     11.21237465	     -2.24474096	      5.21737715	     -4.18969574	     -2.74649773	    -15.08541705	     13.32246951	     -3.78119221	     -1.40148664	      1.84430585	     -1.22741725
      0.02000000	      3.30590837	      4.22516777	   -165.44024226	      0.20807931	      0.95297648	      1.09760019	      7.52998656	      3.77797317	     -0.47235162	    -13.73123146	     11.21380599	     -2.24737448	      5.21396400	     -4.18738485	     -2.74540563	    -15.09871908	     13.32017766	     -3.78130499	     -1.41021524	      1.84957698	     -1.22875852
      0.03000000	      3.28929558	      4.21810527	   -165.44047623	      0.20817633	      0.95299486	      1.09758451	      7.53772539	      3.77583020	     -0.46900814	    -13.76690350	     11.21791898	     -2.25100772	      5.20996980	     -4.18388658	     -2.74664524	    -15.11452610	     13.31845219	     -3.78236595	     -1.42342653	      1.85365119	     -1.22573190
      0.04000000	      3.27275418	      4.20946432	   -165.44174009	      0.20829056	      0.95301595	      1.09756198	      7.54747107	      3.77240624	     -0.46580893	    -13.80400084	     11.22190769	     -2.25474303	      5.20657764	     -4.17849844	     -2.74979791	    -15.12970331	     13.31641628	     -3.78376283	     -1.43881633	      1.85754915	     -1.22125388
      0.05000000	      3.25694302	      4.19951767	   -165.44360375	      0.20841898	      0.95304133	      1.09752800	      7.55903409	      3.76786045	     -0.46199667	    -13.84166033	     11.22465759	     -2.25834625	      5.20460832	     -4.17233734	     -2.75351487	    -15.14473944	     13.31303685	     -3.78509551	     -1.45616011	      1.86062977	     -1.21469680
      0.06000000	      3.24346182	      4.18936317	   -165.44502368	      0.20855923	      0.95306796	      1.09748847	      7.57156167	      3.76256834	     -0.45748599	    -13.87480995	     11.22508678	     -2.26131098	      5.20495471	     -4.16533393	     -2.75648899	    -15.15792618	     13.30808420	     -3.78589358	     -1.47311544	      1.86466745	     -1.20724769
      0.07000000	      3.23750972	      4.18365121	   -165.44099877	      0.20868172	      0.95309223	      1.09746479	      7.57594570	      3.75890652	     -0.45544905	    -13.87966832	     11.22461934	     -2.26180617	      5.20752670	     -4.15965331	     -2.75780464	    -15.15838141	     13.30685615	     -3.78582222	     -1.47584259	      1.87461042	     -1.20410052
      0.08000000	      3.22318164	      4.17171057	   -165.44105589	      0.20885955	      0.95312937	      1.09739944	      7.59488392	      3.75280355	     -0.44741578	    -13.92342852	     11.21677756	     -2.26421644	      5.21210899	     -4.15195885	     -2.75470204	    -15.17740533	     13.29381150	     -3.78451893	     -1.50190952	      1.87823582	     -1.19483551
      0.09000000	      3.21991360	      4.16573344	   -165.43582749	      0.20900119	      0.95315907	      1.09735654	      7.60030291	      3.74890106	     -0.44640819	    -13.92355918	     11.21627109	     -2.26462449	      5.21682094	     -4.14596926	     -2.75647388	    -15.17383697	     13.29229902	     -3.78424940	     -1.50589168	      1.88925975	     -1.19172332
      0.10000000	      3.21674306	      4.15915837	   -165.42803708	      0.20915056	      0.95318882	      1.09731075	      7.60618068	      3.74328421	     -0.44479986	    -13.92529317	     11.21443808	     -2.26500542	      5.22172744	     -4.14031117	     -2.75776008	    -15.16962647	     13.28926569	     -3.78355876	     -1.50986029	      1.90142168	     -1.18833476
      0.11000000	      3.21450842	      4.15218316	   -165.41800860	      0.20930573	      0.95322133	      1.09726289	      7.61273354	      3.73675038	     -0.44352918	    -13.92715392	     11.21108356	     -2.26535335	      5.22659525	     -4.13423227	     -2.75870423	    -15.16300187	     13.28409933	     -3.78225471	     -1.51269243	      1.91427415	     -1.18545040
      0.12000000	      3.22852135	      4.14045489	   -165.40435051	      0.20945826	      0.95324639	      1.09722045	      7.63940186	      3.71942331	     -0.45925025	    -13.93657629	     11.17896901	     -2.26733769	      5.23046137	     -4.11652848	     -2.74341746	    -15.12514173	     13.22859770	     -3.76881437	     -1.49473805	      1.91816394	     -1.19668690
      0.13000000	      3.22709887	      4.13362094	   -165.39019968	      0.20961721	      0.95327106	      1.09717512	      7.64323590	      3.71177142	     -0.45812754	    -13.93339409	     11.17860646	     -2.26763995	      5.23533050	     -4.11126482	     -2.74537505	    -15.11705159	     13.22706925	     -3.76842927	     -1.49481499	      1.93378897	     -1.19271013
      0.14000000	      3.24554988	      4.12755859	   -165.36045733	      0.20975209	      0.95328160	      1.09715826	      7.65731472	      3.69693823	     -0.48752879	    -13.91357290	     11.15889755	     -2.26967887	      5.24339866	     -4.09717061	     -2.71000927	    -15.07401576	     13.18201698	     -3.75978494	     -1.46417651	      1.94440245	     -1.21203567
      0.15000000	      3.24473525	      4.12098188	   -165.34556882	      0.20991418	      0.95329804	      1.09711318	      7.66213203	      3.68940467	     -0.48690675	    -13.91007933	     11.15876344	     -2.26986173	      5.24790067	     -4.09298184	     -2.71324695	    -15.06418502	     13.18162757	     -3.75962362	     -1.46635130	      1.96210606	     -1.20813755
      0.16000000	      3.24529535	      4.11513831	   -165.32925106	      0.21007278	      0.95330952	      1.09707024	      7.66774650	      3.68286864	     -0.48819833	    -13.90554668	     11.15798000	     -2.26996247	      5.25277340	     -4.08915902	     -2.71586705	    -15.05130145	     13.17977136	     -3.75890267	     -1.46966524	      1.98005682	     -1.20329078
      0.17000000	      3.25027435	      4.11940330	   -165.30650317	      0.21020147	      0.95331509	      1.09703544	      7.67827254	      3.68330750	     -0.52756339	    -13.89703520	     11.14541749	     -2.26945633	      5.25076006	     -4.09377217	     -2.69654362	    -15.01362053	     13.15236310	     -3.75032517	     -1.46412603	      2.00486214	     -1.19025811
      0.18000000	      3.24295029	      4.11276761	   -165.28533231	      0.21039541	      0.95332870	      1.09699023	      7.68653275	      3.67723461	     -0.54016017	    -13.90690193	     11.13753157	     -2.26890053	      5.26099038	     -4.08990129	     -2.67717934	    -15.02105911	     13.14180252	     -3.74728693	     -1.49726380	      2.02326632	     -1.17549557
      0.19000000	      3.23378253	      4.10719101	   -165.26540045	      0.21059736	      0.95333913	      1.09694247	      7.69628975	      3.67310167	     -0.55638453	    -13.92017597	     11.13407516	     -2.26902993	      5.27208769	     -4.08759894	     -2.65928132	    -15.03142754	     13.13430921	     -3.74482279	     -1.54288748	      2.04258456	     -1.14640935
      0.20000000	      3.22023951	      4.10049245	   -165.24515029	      0.21082063	      0.95335415	      1.09688824	      7.70786499	      3.66936504	     -0.57000607	    -13.94376102	     11.13113477	     -2.26964480	      5.28661626	     -4.08506173	     -2.63871967	    -15.05304550	     13.12775735	     -3.74274952	     -1.60855311	      2.06029749	     -1.10425347
      0.21000000	      3.20269122	      4.09221300	   -165.22810697	      0.21106819	      0.95337623	      1.09682604	      7.72224942	      3.66518795	     -0.58379307	    -13.97616809	     11.12900077	     -2.27094394	      5.30227100	     -4.08134625	     -2.61668656	    -15.08323484	     13.12231448	     -3.74115691	     -1.69519323	      2.07714766	     -1.05219639
      0.22000000	      3.18307897	      4.08193014	   -165.21116351	      0.21133290	      0.95340284	      1.09676040	      7.73895669	      3.65970236	     -0.59532872	    -14.01575417	     11.12720881	     -2.27295901	      5.31924255	     -4.07595064	     -2.59551522	    -15.11738170	     13.11705848	     -3.73988696	     -1.79868575	      2.09224953	     -0.99049339
      0.23000000	      3.16385755	      4.07063443	   -165.19524212	      0.21161581	      0.95343728	      1.09668146	      7.76025658	      3.65437855	     -0.60308125	    -14.06031158	     11.12416696	     -2.27545415	      5.33927619	     -4.06890424	     -2.57400706	    -15.15403342	     13.10970124	     -3.73840779	     -1.91597918	      2.10278839	     -0.91987033
      0.24000000	      3.14620042	      4.05800973	   -165.17987745	      0.21191635	      0.95347715	      1.09659669	      7.78726630	      3.64737746	     -0.60789095	    -14.10992722	     11.11940427	     -2.27850010	      5.36136684	     -4.06007757	     -2.55390804	    -15.18978258	     13.09977769	     -3.73655457	     -2.04361284	      2.11053818	     -0.84328608
      0.25000000	      3.13106666	      4.04428743	   -165.16463676	      0.21223823	      0.95352230	      1.09650217	      7.82073228	      3.63895544	     -0.61063706	    -14.16527875	     11.11199808	     -2.28201954	      5.38767652	     -4.04972115	     -2.53333482	    -15.22482978	     13.08573211	     -3.73387080	     -2.18067663	      2.11417817	     -0.76062122
      0.26000000	      3.12217720	      4.03126217	   -165.14581283	      0.21258322	      0.95356575	      1.09640186	      7.86254473	      3.63026596	     -0.61247632	    -14.22011720	     11.10173610	     -2.28547603	      5.42051699	     -4.03827457	     -2.51165641	    -15.25555587	     13.06772134	     -3.73014934	     -2.32151687	      2.11428844	     -0.67820702
